<?xml version="1.0" standalone="no"?><!DOCTYPE svg PUBLIC "-//W3C//DTD SVG 1.1//EN" "http://www.w3.org/Graphics/SVG/1.1/DTD/svg11.dtd"><svg t="1628750601821" class="icon" viewBox="0 0 1327 1024" version="1.1" xmlns="http://www.w3.org/2000/svg" p-id="3003" width="259.1796875" height="200" xmlns:xlink="http://www.w3.org/1999/xlink"><defs><style type="text/css"></style></defs><path d="M1013.700819 1024H304.371815a214.011433 214.011433 0 0 1-214.011432-214.011433V347.248292a214.011433 214.011433 0 0 1 214.011432-214.011432h709.329004a214.011433 214.011433 0 0 1 214.011432 214.011432V808.561825a214.011433 214.011433 0 0 1-214.011432 215.438175zM304.371815 203.860632a142.674288 142.674288 0 0 0-142.674288 142.674289V808.561825a142.674288 142.674288 0 0 0 142.674288 142.674288h709.329004a142.674288 142.674288 0 0 0 142.674288-142.674288V347.248292a142.674288 142.674288 0 0 0-142.674288-142.674288z" fill="#1296db" p-id="3004"></path><path d="M456.082142 647.577669a151.948117 151.948117 0 1 1 151.948117-151.948117 152.185908 152.185908 0 0 1-151.948117 151.948117z m0-232.55909a80.610973 80.610973 0 1 0 80.610973 80.610973 80.848763 80.848763 0 0 0-80.610973-80.610973zM861.990492 647.577669a151.948117 151.948117 0 1 1 151.948117-151.948117 151.948117 151.948117 0 0 1-151.948117 151.948117z m0-232.55909a80.610973 80.610973 0 1 0 80.610973 80.610973 80.610973 80.610973 0 0 0-80.610973-80.610973zM765.447557 828.536225h-227.56549a35.668572 35.668572 0 1 1 0-71.337144h227.56549a35.668572 35.668572 0 0 1 0 71.337144zM803.018453 201.482728A35.668572 35.668572 0 0 1 767.349881 166.527527V87.581087c0-7.609295-9.74941-16.169753-23.779048-16.169752h-168.831241c-14.029638 0-23.779048 8.560457-23.779049 16.169752V166.527527a35.668572 35.668572 0 1 1-71.337144 0V87.581087a91.549335 91.549335 0 0 1 95.116193-87.506896h168.831241a91.787126 91.787126 0 0 1 95.116192 87.506896V166.527527a35.668572 35.668572 0 0 1-35.668572 34.955201zM1291.915681 475.655152h-99.15863a35.668572 35.668572 0 0 1 0-71.337144h99.15863a35.668572 35.668572 0 0 1 0 71.337144zM116.992916 475.655152H35.668572a35.668572 35.668572 0 0 1 0-71.337144h81.324344a35.668572 35.668572 0 1 1 0 71.337144z" fill="#1296db" p-id="3005"></path></svg>