<?xml version="1.0" standalone="no"?><!DOCTYPE svg PUBLIC "-//W3C//DTD SVG 1.1//EN" "http://www.w3.org/Graphics/SVG/1.1/DTD/svg11.dtd"><svg t="1644314545580" class="icon" viewBox="0 0 1024 1024" version="1.1" xmlns="http://www.w3.org/2000/svg" p-id="15087" xmlns:xlink="http://www.w3.org/1999/xlink" width="200" height="200"><defs><style type="text/css"></style></defs><path d="M704 874.666667H298.666667A64 64 0 0 1 234.666667 810.666667v-298.666667A64 64 0 0 1 298.666667 448h405.333333c117.632 0 213.333333 95.701333 213.333333 213.333333s-95.701333 213.333333-213.333333 213.333334z m-341.333333-128h341.333333c47.061333 0 85.333333-38.272 85.333333-85.333334s-38.272-85.333333-85.333333-85.333333h-341.333333v170.666667z" fill="#ea9518" p-id="15088"></path><path d="M618.666667 576H298.666667A64 64 0 0 1 234.666667 512V213.333333A64 64 0 0 1 298.666667 149.333333h320c117.632 0 213.333333 95.701333 213.333333 213.333334s-95.701333 213.333333-213.333333 213.333333z m-256-128h256c47.061333 0 85.333333-38.272 85.333333-85.333333s-38.272-85.333333-85.333333-85.333334h-256v170.666667z" fill="#ea9518" p-id="15089"></path><path d="M298.666667 1002.666667A64 64 0 0 1 234.666667 938.666667V85.333333a64 64 0 1 1 128 0v853.333334A64 64 0 0 1 298.666667 1002.666667zM512 1002.666667a64 64 0 0 1-64-64v-128a64 64 0 1 1 128 0v128a64 64 0 0 1-64 64zM512 277.333333A64 64 0 0 1 448 213.333333V85.333333a64 64 0 1 1 128 0v128A64 64 0 0 1 512 277.333333z" fill="#ea9518" p-id="15090"></path><path d="M298.666667 277.333333H170.666667a64 64 0 1 1 0-128h128a64 64 0 1 1 0 128zM298.666667 874.666667H170.666667a64 64 0 1 1 0-128h128a64 64 0 1 1 0 128z" fill="#ea9518" p-id="15091"></path></svg>