<?xml version="1.0" standalone="no"?><!DOCTYPE svg PUBLIC "-//W3C//DTD SVG 1.1//EN" "http://www.w3.org/Graphics/SVG/1.1/DTD/svg11.dtd"><svg t="1692937773342" class="icon" viewBox="0 0 1024 1024" version="1.1" xmlns="http://www.w3.org/2000/svg" p-id="3023" xmlns:xlink="http://www.w3.org/1999/xlink" width="200" height="200"><path d="M512 568.569l-67.602 67.601C461.884 663.92 472 696.778 472 732c0 99.411-80.589 180-180 180s-180-80.589-180-180 80.589-180 180-180c35.222 0 68.08 10.116 95.83 27.602L455.43 512 123.716 180.284c-15.621-15.62-15.621-40.947 0-56.568 15.62-15.621 40.947-15.621 56.568 0L512 455.43l331.716-331.715c15.62-15.621 40.947-15.621 56.568 0 15.621 15.62 15.621 40.947 0 56.568L568.57 512l67.601 67.602C663.92 562.116 696.778 552 732 552c99.411 0 180 80.589 180 180s-80.589 180-180 180-180-80.589-180-180c0-35.222 10.116-68.08 27.602-95.83L512 568.57zM292 832c55.228 0 100-44.772 100-100s-44.772-100-100-100-100 44.772-100 100 44.772 100 100 100z m440 0c55.228 0 100-44.772 100-100s-44.772-100-100-100-100 44.772-100 100 44.772 100 100 100z" fill="#a52a1b" p-id="3024"></path></svg>