<?xml version="1.0" standalone="no"?><!DOCTYPE svg PUBLIC "-//W3C//DTD SVG 1.1//EN" "http://www.w3.org/Graphics/SVG/1.1/DTD/svg11.dtd"><svg t="1644314455604" class="icon" viewBox="0 0 1024 1024" version="1.1" xmlns="http://www.w3.org/2000/svg" p-id="14207" xmlns:xlink="http://www.w3.org/1999/xlink" width="200" height="200"><defs><style type="text/css"></style></defs><path d="M554.624 938.154667v-86.869334c156.117333-13.952 213.333333-104.533333 213.333333-189.952 0-121.472-120.362667-182.656-213.333333-190.933333V257.792c91.477333 7.424 151.04 36.138667 151.722667 36.437333l38.058666-76.416c-3.456-1.706667-77.184-37.632-189.738666-45.482666V85.333333h-85.333334v87.381334c-156.117333 13.952-213.333333 104.533333-213.333333 189.952 0 121.472 120.362667 182.656 213.333333 190.933333v212.650667c-91.477333-7.466667-151.04-36.138667-151.594666-36.437334l-38.186667 76.330667c3.456 1.706667 77.184 37.632 189.738667 45.44v86.528h85.333333z m0-381.909334c58.368 7.424 128 44.074667 128 105.088 0 58.24-46.208 95.018667-128 104.192v-209.28z m-213.333333-193.578666c0-59.264 45.226667-95.402667 128-104.32v209.493333c-53.504-6.997333-128-39.210667-128-105.173333z" fill="#ea9518" p-id="14208"></path></svg>