<?xml version="1.0" standalone="no"?><!DOCTYPE svg PUBLIC "-//W3C//DTD SVG 1.1//EN" "http://www.w3.org/Graphics/SVG/1.1/DTD/svg11.dtd"><svg t="1646631598559" class="icon" viewBox="0 0 1024 1024" version="1.1" xmlns="http://www.w3.org/2000/svg" p-id="3530" xmlns:xlink="http://www.w3.org/1999/xlink" width="200" height="200"><defs><style type="text/css"></style></defs><path d="M512 814.46c-13.274 0-26.548-4.741-37.926-14.223-91.022-84.385-187.733-181.096-189.63-254.104-0.948-34.133 11.378-66.37 34.134-91.022 25.6-26.548 61.63-41.718 97.659-41.718 36.03 0 71.111 15.17 94.815 40.77 24.652-25.6 58.785-40.77 95.763-40.77 73.007 0 131.792 59.733 131.792 131.792 0 67.319-91.022 162.134-189.63 254.104-9.48 10.43-23.703 15.17-36.977 15.17zM416.237 470.28c-20.86 0-41.718 8.534-56.889 23.704-12.326 13.274-18.963 31.29-18.963 49.304C342.281 598.28 465.541 713.956 512 757.57c112.83-106.192 170.667-177.303 170.667-212.385 0-41.718-34.134-74.904-74.904-74.904-26.548 0-51.2 14.223-65.422 37.926-17.067 29.393-47.408 27.497-61.63-1.896-12.326-21.807-36.978-36.03-64.474-36.03z" p-id="3531" fill="#d81e06"></path><path d="M864.711 931.081c0 16.119-13.274 29.393-29.392 29.393H188.68c-16.118 0-29.392-13.274-29.392-29.393v-394.43c0-16.118 13.274-29.392 29.392-29.392 16.119 0 29.393 13.274 29.393 29.393v335.644c0 16.119 13.274 29.393 29.393 29.393H777.48c16.119 0 29.393-13.274 29.393-29.393V536.652c0-16.119 13.274-29.393 29.393-29.393 16.118 0 29.392 13.274 29.392 29.393v394.43zM958.578 447.526l-94.815-91.97V167.822c0-16.118-13.274-28.444-28.444-28.444H734.815c-16.119 0-28.445 13.274-28.445 28.444v53.097L531.911 71.11c-11.378-9.481-27.496-9.481-37.926 0L66.37 447.526c-12.326 10.43-13.274 29.393-2.844 40.77 10.43 12.326 29.393 13.274 41.718 2.845l388.741-343.23c11.378-9.481 27.496-9.481 37.926 0L763.26 345.126l40.77 36.03 112.83 108.088c11.378 11.378 30.341 11.378 41.719-0.948 11.378-10.43 11.378-29.392 0-40.77z m-194.37-180.148v-48.356c0-11.378 9.48-20.859 20.859-20.859 11.377 0 20.859 9.481 20.859 20.86v85.333l-41.719-36.978z" p-id="3532" fill="#d81e06"></path></svg>