<?xml version="1.0" standalone="no"?><!DOCTYPE svg PUBLIC "-//W3C//DTD SVG 1.1//EN" "http://www.w3.org/Graphics/SVG/1.1/DTD/svg11.dtd"><svg t="1643729435096" class="icon" viewBox="0 0 1024 1024" version="1.1" xmlns="http://www.w3.org/2000/svg" p-id="6090" xmlns:xlink="http://www.w3.org/1999/xlink" width="200" height="200"><defs><style type="text/css"></style></defs><path d="M869.284733 403.889989c-51.275246-84.924627-41.661138-144.211631-41.661137-147.416334a31.085618 31.085618 0 0 0-11.21646-30.444677 32.047029 32.047029 0 0 0-33.649381-4.807055 192.282174 192.282174 0 0 0-92.936384 120.176359 332.167456 332.167456 0 0 0-12.818812 67.298761c-9.614109-16.023515-17.625866-32.047029-24.035271-44.865841-68.901112-149.018685-36.854083-322.072642-35.251732-325.277344A35.411967 35.411967 0 0 0 608.101447 8.10918a29.963972 29.963972 0 0 0-30.444678-6.409406C569.645012 4.904477 372.555784 64.191481 327.689943 312.555956a598.157797 598.157797 0 0 0 6.409406 237.148015 209.106864 209.106864 0 0 1-56.082301-60.889356 576.846522 576.846522 0 0 1-46.468192-115.369304 32.047029 32.047029 0 0 0-59.287004-8.011757C169.05715 370.240608 95.348983 503.235779 95.348983 625.014489c0 230.738609 171.451605 398.985511 413.406674 398.985511S928.571737 855.753098 928.571737 625.014489c0-94.538736-12.818812-144.211631-59.287004-221.1245zM508.755657 961.508293C303.654671 961.508293 159.443041 820.501366 159.443041 626.61684a459.554396 459.554396 0 0 1 35.251732-158.632793 456.189458 456.189458 0 0 0 27.239974 56.0823 285.859499 285.859499 0 0 0 152.223388 116.971656 34.130086 34.130086 0 0 0 32.047029-9.614108 33.64938 33.64938 0 0 0 6.409406-32.047029c0-1.602351-49.672895-137.802225-24.035272-274.002099 25.637623-139.404576 107.357547-208.305689 160.235145-238.750366-4.807054 70.503464-6.409406 192.282174 46.468192 304.446776a1046.976438 1046.976438 0 0 0 84.924627 137.802225 32.047029 32.047029 0 0 0 36.854084 11.21646 32.047029 32.047029 0 0 0 20.830569-32.047029 523.167749 523.167749 0 0 1 14.421163-149.018685 213.433213 213.433213 0 0 1 16.023514-38.456435 358.926725 358.926725 0 0 0 46.468192 116.971656c40.058786 67.298761 49.672895 105.755196 49.672895 189.077471C864.477679 820.501366 715.458994 961.508293 508.755657 961.508293z" p-id="6091" fill="#d81e06"></path></svg>