<?xml version="1.0" standalone="no"?><!DOCTYPE svg PUBLIC "-//W3C//DTD SVG 1.1//EN" "http://www.w3.org/Graphics/SVG/1.1/DTD/svg11.dtd"><svg t="1643729084914" class="icon" viewBox="0 0 1024 1024" version="1.1" xmlns="http://www.w3.org/2000/svg" p-id="2521" xmlns:xlink="http://www.w3.org/1999/xlink" width="200" height="200"><defs><style type="text/css"></style></defs><path d="M512 512m-399.6 0a399.6 399.6 0 1 0 799.2 0 399.6 399.6 0 1 0-799.2 0Z" fill="#ECEFF1" p-id="2522"></path><path d="M512 112.4c-17 0-33.6 1-50 3.2 197.2 24.6 349.6 192.8 349.6 396.4S659.2 883.8 462 908.4c16.4 2 33 3.2 50 3.2 220.6 0 399.6-178.8 399.6-399.6S732.6 112.4 512 112.4z" fill="#D0D5D9" p-id="2523"></path><path d="M512 370.8l-148.4 107.8 56.6 174.6h183.6l56.6-174.6z" fill="#465A63" p-id="2524"></path><path d="M512 370.8l-25 18.2 123.6 89.6-56.8 174.6h50l56.6-174.6z" fill="#3D4F57" p-id="2525"></path><path d="M363.6 140.8l148.4 107.8 148.4-107.8c-45.8-18.4-96-28.4-148.4-28.4-52.4 0-102.6 10.2-148.4 28.4z" fill="#465A63" p-id="2526"></path><path d="M660.4 141c-0.2-0.2-0.6-0.2-0.8-0.4-1.4-0.6-2.8-1-4.2-1.6l-4.8-1.8c-1.4-0.6-2.8-1-4.2-1.4l-4.8-1.8c-1.4-0.4-2.8-1-4-1.4-1.8-0.6-3.4-1.2-5.2-1.6-1.2-0.4-2.6-0.8-4-1.2-1.8-0.6-3.6-1-5.4-1.6-1.2-0.4-2.4-0.8-3.6-1-2-0.6-3.8-1-5.8-1.6-1.2-0.2-2.2-0.6-3.4-0.8-2-0.6-4.2-1-6.2-1.6-1-0.2-2-0.4-3.2-0.8-2.2-0.6-4.4-1-6.6-1.4-1-0.2-1.8-0.4-2.8-0.6-2.4-0.4-4.8-1-7.2-1.4-0.8-0.2-1.6-0.2-2.4-0.4l-7.8-1.2c-0.6 0-1.2-0.2-1.8-0.2-2.8-0.4-5.8-0.8-8.6-1.2-0.4 0-0.6 0-1-0.2-3.2-0.4-6.4-0.8-9.8-1.2-13.4-1.4-27-2-40.8-2-8.4 0-16.8 0.2-25.2 0.8-8.4 0.6-16.6 1.2-24.8 2.4 57.2 7.2 110.6 26.4 157.6 55l40.8-29.8z" fill="#3D4F57" p-id="2527"></path><path d="M762.4 430.6l148.4 107.8c0.6-8.8 0.8-17.6 0.8-26.4 0-97.2-34.8-186.4-92.6-255.8l-56.6 174.4z" fill="#465A63" p-id="2528"></path><path d="M911.4 501.8v-0.6c0-3-0.2-6.2-0.4-9.2 0-0.6 0-1.2-0.2-1.8-0.2-2.6-0.4-5.2-0.4-7.8 0-0.8-0.2-1.6-0.2-2.4-0.2-2.4-0.4-5-0.6-7.4 0-0.8-0.2-1.6-0.2-2.4-0.2-2.4-0.6-5-0.8-7.4 0-0.8-0.2-1.6-0.2-2.2-0.4-2.6-0.8-5.2-1.2-8 0-0.6-0.2-1-0.2-1.6-1.4-9.6-3.4-19.2-5.4-28.6-0.2-0.6-0.4-1.4-0.4-2-0.6-2.4-1.2-4.8-1.8-7-0.2-1-0.4-1.8-0.8-2.8-0.6-2.2-1.2-4.2-1.8-6.4-0.2-1-0.6-2-0.8-3l-1.8-6c-0.4-1-0.6-2-1-3-0.6-2-1.4-4-2-6-0.4-1-0.6-2-1-2.8l-2.4-6.6c-0.2-0.8-0.6-1.4-0.8-2.2-1-3-2.2-5.8-3.4-8.8v-0.2c-1-2.8-2.2-5.6-3.4-8.4l-1.2-3-2.4-5.4c-0.6-1.2-1-2.4-1.6-3.4-0.8-1.6-1.4-3.2-2.2-4.8l-1.8-3.6c-0.8-1.6-1.4-3-2.2-4.6-0.6-1.2-1.2-2.6-2-3.8-0.8-1.4-1.6-3-2.2-4.4-0.6-1.2-1.4-2.6-2-3.8l-2.4-4.2c-0.6-1.2-1.4-2.4-2.2-3.8-0.8-1.4-1.8-3-2.6-4.4-0.8-1.2-1.4-2.4-2.2-3.8-1.4-2.4-3-4.8-4.4-7-0.8-1.2-1.6-2.6-2.4-3.8-0.8-1.2-1.6-2.6-2.4-3.8-0.8-1.2-1.8-2.6-2.6-3.8l-2.4-3.6c-1-1.2-1.8-2.6-2.8-3.8-0.8-1.2-1.6-2.4-2.6-3.4-1-1.2-2-2.6-2.8-3.8-0.8-1.2-1.8-2.2-2.6-3.4-1-1.2-2-2.6-3-3.8-0.8-1.2-1.8-2.2-2.6-3.2-1-1.2-2-2.4-3-3.8-0.2-0.2-0.4-0.4-0.4-0.6L784 365c12.4 31.4 21 64.8 25.2 99.6l101.8 74v-0.8l0.6-10.8c0-1 0-1.8 0.2-2.8 0.2-3.4 0.2-6.8 0.2-10.2v-2c-0.4-3.4-0.4-6.8-0.6-10.2z" fill="#3D4F57" p-id="2529"></path><path d="M112.4 512c0 8.8 0.4 17.6 0.8 26.4l148.4-107.8-56.6-174.4C147.2 325.6 112.4 414.8 112.4 512zM610 899.4c100.8-25.4 186.2-89 240.2-174.4h-183.4L610 899.4z" fill="#465A63" p-id="2530"></path><path d="M750.2 725c-31.6 50-74 92.6-124 124.4l-16.2 50c0.4 0 0.6-0.2 1-0.2l4.2-1.2c1.8-0.4 3.4-1 5.2-1.4 1.4-0.4 3-0.8 4.4-1.2 1.6-0.4 3.4-1 5-1.4 1.4-0.4 3-1 4.4-1.4 1.6-0.6 3.2-1 4.8-1.6 1.4-0.4 3-1 4.4-1.6 1.6-0.6 3.2-1 4.8-1.6 1.4-0.6 3-1.2 4.4-1.6 1.6-0.6 3-1.2 4.6-1.8 1.6-0.6 3-1.2 4.4-1.8 1.4-0.6 3-1.2 4.4-1.8 1.6-0.6 3-1.2 4.4-2 1.4-0.6 2.8-1.2 4.4-1.8 1.4-0.6 3-1.4 4.4-2 1.4-0.6 2.8-1.4 4.2-2 1.6-0.8 3-1.4 4.4-2.2 1.4-0.6 2.8-1.4 4.2-2 1.6-0.8 3-1.6 4.4-2.4 1.4-0.6 2.6-1.4 4-2.2 1.6-0.8 3-1.6 4.4-2.4 1.2-0.8 2.6-1.4 3.8-2.2 1.4-0.8 3-1.8 4.4-2.6 1.2-0.8 2.6-1.4 3.8-2.2 1.4-0.8 3-1.8 4.4-2.8 1.2-0.8 2.4-1.6 3.6-2.2 1.4-1 3-1.8 4.4-2.8l3.6-2.4c1.4-1 3-2 4.4-3 1.2-0.8 2.2-1.6 3.4-2.4 1.4-1 3-2 4.4-3.2 1-0.8 2.2-1.6 3.2-2.4 1.4-1 3-2.2 4.4-3.4 1-0.8 2-1.6 3.2-2.4 1.4-1.2 3-2.2 4.4-3.4l3-2.4c1.4-1.2 3-2.4 4.4-3.6l3-2.4c1.4-1.2 3-2.4 4.4-3.8 1-0.8 1.8-1.6 2.8-2.4 1.4-1.2 2.8-2.6 4.4-4 0.8-0.8 1.8-1.6 2.6-2.4 1.4-1.4 2.8-2.8 4.2-4 0.8-0.8 1.6-1.6 2.6-2.4l4.2-4.2 2.4-2.4c1.4-1.4 2.8-3 4.2-4.4 0.8-0.8 1.6-1.6 2.2-2.4 1.4-1.6 2.8-3 4.2-4.6 0.8-0.8 1.4-1.6 2.2-2.4l4.2-4.8c0.6-0.8 1.4-1.6 2-2.4 1.4-1.6 2.8-3.2 4-5l1.8-2.4c1.4-1.6 2.8-3.4 4-5.2l1.8-2.4c1.4-1.8 2.6-3.6 4-5.2 0.6-0.8 1.2-1.6 1.6-2.2 1.4-1.8 2.6-3.6 4-5.4 0.6-0.8 1-1.4 1.6-2.2 1.2-1.8 2.6-3.8 3.8-5.6 0.4-0.8 1-1.4 1.4-2.2 1.2-2 2.6-3.8 3.8-5.8 0.2-0.2 0.2-0.4 0.4-0.6h-99.2z" fill="#3D4F57" p-id="2531"></path><path d="M357.2 725H173.8c54 85.4 139.4 149 240 174.6l-56.6-174.6z" fill="#465A63" p-id="2532"></path><path d="M923.2 539.4v-0.2c0.2-4.2 0.4-8.6 0.6-12.8v-1.4c0.2-4.4 0.2-8.6 0.2-13 0-3.2 0-6.6-0.2-9.8 0-1.4 0-2.8-0.2-4.2 0-1.8-0.2-3.6-0.2-5.4 0-1.8-0.2-3.8-0.4-5.6 0-1.2-0.2-2.2-0.2-3.4-0.2-2.4-0.4-4.6-0.6-7 0-0.4 0-1-0.2-1.4-4-45-15.2-88-32.6-127.6-0.2-0.6-0.4-1-0.6-1.6-0.8-2-1.8-3.8-2.6-5.8-0.8-1.6-1.4-3.2-2.2-4.6-0.4-1-1-2-1.4-3-14.6-30-32.8-58.4-54.4-84.4-0.4-0.6-1-1-1.6-1.4-43-51-98-91.4-160.6-116.8-0.4-0.2-1-0.6-1.4-0.8-32.4-13-66-21.6-100.4-26h-0.4c-3.2-0.4-6.2-0.8-9.4-1-0.4 0-0.8 0-1.2-0.2-2.8-0.2-5.8-0.6-8.6-0.8-0.6 0-1.2-0.2-1.8-0.2-2.6-0.2-5.4-0.4-8-0.6-0.8 0-1.6-0.2-2.4-0.2-2.6-0.2-5.2-0.2-7.8-0.4H522c-3.4 0-6.8-0.2-10.4-0.2-3.4 0-6.8 0-10.4 0.2h-2.6c-2.6 0-5.2 0.2-7.8 0.4-0.8 0-1.6 0-2.4 0.2-2.6 0.2-5.4 0.4-8 0.6-0.6 0-1.2 0.2-1.8 0.2-2.8 0.2-5.8 0.4-8.6 0.8-0.4 0-0.8 0-1.2 0.2-3.2 0.4-6.2 0.6-9.4 1h-0.4c-34.4 4.4-68 13-100.4 26-0.6 0.2-1 0.4-1.4 0.8-62.6 25.4-117.6 65.8-160.6 116.8-0.6 0.4-1 1-1.6 1.4-21.6 26-39.8 54.4-54.4 84.4-0.4 1-1 2-1.4 3-0.8 1.6-1.4 3.2-2.2 4.6-0.8 2-1.8 3.8-2.6 5.8-0.2 0.6-0.4 1-0.8 1.6-17.4 39.6-28.6 82.6-32.6 127.6 0 0.4 0 1-0.2 1.4-0.2 2.4-0.4 4.6-0.6 7 0 1.2-0.2 2.2-0.2 3.4-0.2 1.8-0.2 3.8-0.4 5.6 0 1.8-0.2 3.6-0.2 5.2 0 1.4-0.2 2.8-0.2 4.2 0 3.2-0.2 6.6-0.2 9.8 0 4.4 0 8.6 0.2 13v1.2c0.2 4.2 0.4 8.4 0.6 12.8v0.2c4.6 69.6 26.6 134.6 61.6 190.6 0.2 0.6 0.6 1.2 0.8 1.8 56.8 90 144.8 154 247.6 180 0.2 0 0.6 0.2 0.8 0.2 32.2 8 65.8 12.4 100.4 12.4 34.6 0 68.2-4.2 100.2-12.4 0.2 0 0.6 0 0.8-0.2 102.8-26 190.8-89.8 247.6-180 0.4-0.6 0.6-1.2 0.8-1.8 36.2-55.6 58.2-120.6 62.8-190.2z m-80.2 173.2h-170.8l-54.4-62.2 52.8-162.6 90.4-42.6 136.8 99.4c-5.2 61-24.4 118.2-54.8 168z m-206.8 166c-0.2 0-0.2 0-0.4 0.2-2.2 0.8-4.4 1.4-6.8 2.2l46.6-143.6h150.8c-46.6 65-113 115-190.2 141.2z m-248.2 0.2c-77.4-26.2-143.8-76.2-190.6-141.4H348l46.6 143.6c-2.2-0.8-4.4-1.4-6.6-2.2z m-36.4-166.4H181c-30.2-49.8-49.6-107-54.6-168l136.8-99.4 90.4 42.6 52.8 162.6-54.8 62.2zM125.2 498v-2.6c2.2-50.6 14.4-100.2 35.4-146 0.4-0.8 0.8-1.6 1-2.4 1.8-3.8 3.6-7.6 5.6-11.2 0.8-1.8 1.8-3.4 2.8-5.2 0.8-1.6 1.8-3.4 2.8-5 8.2-15 17.6-29.4 27.6-43l46.6 143.2-122 88.6V512c-0.2-4.6 0-9.4 0.2-14z m304.2 142.8l-51-157.2 133.8-97.2 133.8 97.2-51 157.2h-165.6z m-33.8-498c1-0.4 2-0.6 3-1 4.6-1.4 9.2-2.8 14-4 1.2-0.2 2.2-0.6 3.4-0.8 2.6-0.6 5-1.2 7.6-1.8 1.8-0.4 3.4-0.8 5.2-1.2 3.6-0.8 7.2-1.6 10.8-2.2 2.2-0.4 4.4-0.8 6.4-1.2 2-0.4 4.2-0.8 6.2-1 3.8-0.6 7.4-1.2 11.2-1.6l4.8-0.6c3.2-0.4 6.6-0.6 9.8-1 1.2-0.2 2.4-0.2 3.6-0.4 4.4-0.4 8.6-0.6 13-0.8 1.2 0 2.4 0 3.4-0.2 4.6-0.2 9.2-0.2 13.8-0.2s9.2 0.2 13.8 0.2c1.2 0 2.4 0 3.4 0.2 4.4 0.2 8.8 0.4 13 0.8 1.2 0 2.4 0.2 3.6 0.4 3.2 0.2 6.6 0.6 9.8 1l4.8 0.6c3.8 0.4 7.4 1 11.2 1.6 2 0.4 4.2 0.6 6.2 1 2.2 0.4 4.4 0.8 6.4 1.2 3.6 0.6 7.2 1.4 10.8 2.2 1.8 0.4 3.4 0.8 5.2 1.2 2.6 0.6 5.2 1.2 7.6 1.8 1.2 0.2 2.2 0.6 3.4 0.8 4.6 1.2 9.4 2.6 14 4 1 0.4 2 0.6 3 1 2 0.6 3.8 1.2 5.8 1.8l-122 88.6-122-88.6c2-0.6 4-1.2 5.8-1.8z m503.4 371.8l-122-88.6 46.6-143.4c10.2 13.8 19.4 28.2 27.6 43.2 1 1.6 1.8 3.4 2.6 5 1 1.8 1.8 3.4 2.8 5.2 1.8 3.8 3.8 7.4 5.6 11.2l1.2 2.4c21 45.6 33.2 95.2 35.4 146v2.6c0.2 4.6 0.2 9.4 0.2 14 0.2 0.6 0 1.6 0 2.4z m-94-255.4l-52.8 162.6-90.4 42.6-137.4-99.8v-109.4l137.6-100c55.4 23.4 104.2 59.2 143 104zM362 155.2l137.6 100v109.4l-137.4 99.8-90.4-42.6-52.8-162.4c38.8-45 87.6-80.8 143-104.2z m61.6 733.8L371.2 728l54.6-62.2H598l54.4 62.2-52.4 161c-28.4 6.6-57.8 10.2-88.2 10.2-30.2 0-59.8-3.6-88.2-10.2z" fill="#17171D" p-id="2533"></path></svg>