<?xml version="1.0" standalone="no"?><!DOCTYPE svg PUBLIC "-//W3C//DTD SVG 1.1//EN" "http://www.w3.org/Graphics/SVG/1.1/DTD/svg11.dtd"><svg t="1643729620934" class="icon" viewBox="0 0 1024 1024" version="1.1" xmlns="http://www.w3.org/2000/svg" p-id="9430" xmlns:xlink="http://www.w3.org/1999/xlink" width="200" height="200"><defs><style type="text/css"></style></defs><path d="M433.44 945.216l58.912-275.68-58.88-78.752L354.88 551.36l78.528 393.824z m157.12 0l78.528-393.824-78.528 39.36-58.912 78.784 58.88 275.68z m98.176-621.536a12.864 12.864 0 0 0-2.464-3.68c-5.536-4.32-49.696-4.928-58.88-4.928-35.008 0-68.16 4.928-102.496 11.712-4.32 1.216-8.608 1.216-12.896 1.216s-8.576 0-12.896-1.216c-34.368-6.784-67.52-11.712-102.464-11.712-9.216 0-53.376 0.64-58.912 4.928a12.864 12.864 0 0 0-2.464 3.68c0.64 5.536 1.248 11.104 2.464 16.64 3.68 4.896 6.72 3.072 9.216 10.464 15.936 43.68 23.296 77.536 78.528 77.536 79.168 0 57.088-73.248 82.848-73.248h7.36c25.76 0 3.68 73.248 82.848 73.248 55.232 0 62.592-33.856 78.528-77.536 2.464-7.392 5.536-5.568 9.216-10.464 1.216-5.536 1.856-11.104 2.464-16.64zM944 864.64C944 964.928 878.336 1024 780.16 1024H243.84C145.664 1024 80 964.928 80 864.64c0-111.424 19.648-280 133.76-335.424l-55.2-135.36h131.296a244.16 244.16 0 0 1-13.504-78.784c0-6.752 0.64-13.536 1.248-19.68-23.936-4.928-119.04-24.64-119.04-59.072 0-36.32 104.32-56 128.864-60.928C300.288 129.216 330.976 59.072 362.24 22.72 374.56 8.64 389.888 0 408.896 0 445.76 0 475.2 38.144 512 38.144 548.8 38.144 578.272 0 615.104 0c19.008 0 34.336 8.64 46.624 22.784 31.296 36.288 61.984 106.432 74.88 152.608 24.544 4.928 128.832 24.608 128.832 60.928 0 34.464-95.104 54.144-119.04 59.072a234.464 234.464 0 0 1-12.256 98.464h131.296l-50.304 138.464C924.992 589.536 944 755.072 944 864.608z" p-id="9431"></path></svg>