<?xml version="1.0" standalone="no"?><!DOCTYPE svg PUBLIC "-//W3C//DTD SVG 1.1//EN" "http://www.w3.org/Graphics/SVG/1.1/DTD/svg11.dtd"><svg t="1644313123903" class="icon" viewBox="0 0 1024 1024" version="1.1" xmlns="http://www.w3.org/2000/svg" p-id="4607" xmlns:xlink="http://www.w3.org/1999/xlink" width="200" height="200"><defs><style type="text/css"></style></defs><path d="M515.65857126 343.10782483c-86.40995049 0-157.10900061-70.69905013-157.10900061-157.10900062s70.69905013-157.10900061 157.10900061-157.10900062 157.10900061 70.69905013 157.10899923 157.10900062-68.73518794 157.10900061-157.10899923 157.10900062z m0-237.62736312c-43.20497523 0-78.55450031 35.34952507-78.5545003 78.55450032s35.34952507 78.55450031 78.5545003 78.5545003 78.55450031-35.34952507 78.55450031-78.5545003-33.38566288-78.55450031-78.55450031-78.55450032zM515.65857126 936.19430085c-21.60248693 0-39.27724947-17.67476253-39.27725085-39.27724946V419.69846294c0-21.60248693 17.67476253-39.27724947 39.27725085-39.27725083s39.27724947 17.67476253 39.27724947 39.27725083V894.95318782c0 23.56635051-17.67476253 41.24111305-39.27724947 41.24111303z" fill="#3FA6AD" p-id="4608"></path><path d="M875.04540856 561.09656322c-21.60248693 0-39.27724947-17.67476253-39.27724947-39.27725083v-137.47037451l-310.29027546 74.62677453c-5.89158797 1.9638622-11.78317456 1.9638622-17.67476253 0L197.51284564 384.34893788v137.47037451c0 21.60248693-17.67476253 39.27724947-39.27725085 39.27725083s-39.27724947-17.67476253-39.27724945-39.27725083v-186.56693772c0-11.78317456 5.89158797-23.56635051 15.71090032-31.42180069 9.81931236-7.85545018 21.60248693-9.81931236 33.3856615-7.85544879l349.5675263 82.48222472L867.18995839 295.97512519c11.78317456-1.9638622 23.56635051 0 33.38566288 7.85544879s15.71090034 19.63862474 15.71090032 31.42180069V521.81931239c-1.9638622 21.60248693-19.63862474 39.27724947-41.24111303 39.27725083zM515.65857126 936.19430085c-3.92772438 0-5.89158797 0-9.81931236-1.96386218l-359.38683867-86.4099505c-17.67476253-3.92772438-29.45793709-19.63862474-29.4579371-37.31338726v-108.0124374c0-21.60248693 17.67476253-39.27724947 39.27724947-39.27725086s39.27724947 17.67476253 39.27724946 39.27725086v76.59063672L515.65857126 855.67593835l320.10958783-76.59063812v-76.59063672c0-21.60248693 17.67476253-39.27724947 39.27724947-39.27725086s39.27724947 17.67476253 39.27725084 39.27725086v108.0124374c0 17.67476253-11.78317456 33.38566288-29.45793849 37.31338726L525.47788363 934.23043867c-3.92772438 1.9638622-5.89158797 1.9638622-9.81931237 1.96386218z" fill="#3FA6AD" p-id="4609"></path><path d="M173.94649513 743.73577517c-7.85545018 0-15.71090034 0-23.5663505-1.9638622-29.45793709-5.89158797-56.952012-19.63862474-80.51836251-43.20497523-54.98814979-54.98814979-58.91587557-137.47037588-11.78317457-186.56693773 27.4940749-27.4940749 64.80746218-37.31338727 106.0485752-31.42180067 29.45793709 5.89158797 58.91587557 19.63862474 80.51836252 43.20497524 54.98814979 54.98814979 58.91587557 137.47037588 11.78317456 186.56693772-21.60248693 21.60248693-51.06042541 33.38566288-82.4822247 33.38566287zM140.56083224 559.13269965c-7.85545018 0-17.67476253 1.9638622-25.5302127 9.81931236-17.67476253 17.67476253-11.78317456 51.06042541 11.78317596 74.6267759 13.74703814 13.74703814 29.45793709 19.63862474 39.27724946 19.63862474 9.81931236 1.9638622 25.5302127 1.9638622 37.31338726-7.85545015 17.67476253-17.67476253 11.78317456-51.06042541-11.78317456-74.62677455-13.74703814-13.74703814-29.45793709-19.63862474-39.27724946-19.63862473-3.92772438-1.9638622-7.85545018-1.9638622-11.78317596-1.96386357zM857.37064601 743.73577517c-31.42180067 0-60.87973778-11.78317456-82.4822247-33.38566287-47.13269964-47.13269964-43.20497523-131.5787879 11.78317458-186.56693772 21.60248693-21.60248693 49.09656321-37.31338727 80.5183625-43.20497524 41.24111305-7.85545018 78.55450031 3.92772438 106.04857521 31.42180067 47.13269964 47.13269964 43.20497523 131.5787879-11.78317457 186.56693773-21.60248693 21.60248693-49.09656321 37.31338727-80.5183625 43.20497523-7.85545018 1.9638622-15.71090034 1.9638622-23.56635052 1.9638622z m35.34952509-184.60307552h-9.81931238c-9.81931236 1.9638622-25.5302127 5.89158797-39.27724944 19.63862611-23.56635051 23.56635051-29.45793709 56.952012-11.78317597 74.62677454 11.78317456 11.78317456 27.4940749 9.81931236 37.31338867 7.85545016 9.81931236-1.9638622 25.5302127-5.89158797 39.27724944-19.63862473 23.56635051-23.56635051 29.45793709-56.952012 11.78317458-74.62677593-9.81931236-5.89158797-19.63862474-7.85545018-27.4940749-7.85545015z" fill="#DC4569" p-id="4610"></path></svg>