<?xml version="1.0" standalone="no"?><!DOCTYPE svg PUBLIC "-//W3C//DTD SVG 1.1//EN" "http://www.w3.org/Graphics/SVG/1.1/DTD/svg11.dtd"><svg t="1692937702231" class="icon" viewBox="0 0 1024 1024" version="1.1" xmlns="http://www.w3.org/2000/svg" p-id="2710" xmlns:xlink="http://www.w3.org/1999/xlink" width="200" height="200"><path d="M795.648 242.3296h-138.1888l88.5248-92.3648a30.72 30.72 0 0 0-0.9216-43.4176 30.72 30.72 0 0 0-43.4176 0.9216l-129.28 134.912H476.8768L347.5968 107.4176a30.72 30.72 0 0 0-43.4176-0.9216 30.72 30.72 0 0 0-0.9216 43.4176l88.5248 92.3648H233.6256c-75.5712 0-136.8064 61.2352-136.8064 136.8064v375.4496c0 75.5712 61.2352 136.8064 136.8064 136.8064H795.648c75.5712 0 136.8064-61.2352 136.8064-136.8064V379.1872c0-75.5712-61.2352-136.8576-136.8064-136.8576z m-129.3824 376.1664l-183.6032 106.0352a64.1536 64.1536 0 0 1-32.2048 8.7552c-11.0592 0-22.1184-2.9184-32.2048-8.7552-20.1728-11.6224-32.2048-32.4608-32.2048-55.7568V456.704c0-23.296 12.032-44.1344 32.2048-55.7568s44.2368-11.6224 64.4096 0l183.6032 106.0352c20.1728 11.6224 32.2048 32.512 32.2048 55.7568-0.0512 23.2448-12.0832 44.1344-32.2048 55.7568z" fill="#958DFF" p-id="2711"></path><path d="M635.4944 560.1792L451.8912 454.144c-0.3072-0.1536-0.768-0.4608-1.4336-0.4608-0.4096 0-0.9216 0.1024-1.536 0.4608-1.4848 0.8704-1.4848 1.9968-1.4848 2.56v212.0192c0 0.5632 0 1.6896 1.4848 2.56 1.4848 0.8704 2.4576 0.256 2.9696 0l183.6032-106.0352c0.4608-0.256 1.4848-0.8704 1.4848-2.56 0-1.6896-0.9728-2.2528-1.4848-2.5088z" fill="#958DFF" p-id="2712"></path></svg>