<?xml version="1.0" standalone="no"?><!DOCTYPE svg PUBLIC "-//W3C//DTD SVG 1.1//EN" "http://www.w3.org/Graphics/SVG/1.1/DTD/svg11.dtd"><svg t="1692938372835" class="icon" viewBox="0 0 1024 1024" version="1.1" xmlns="http://www.w3.org/2000/svg" p-id="1911" xmlns:xlink="http://www.w3.org/1999/xlink" width="200" height="200"><path d="M633.792 469.642l-1.051-0.795-153.019-95.888c-12.954-9.046-29.595-10.311-43.838-3.227-14.744 7.334-23.903 22.121-23.903 38.588v191.39c0 16.468 9.16 31.255 23.904 38.589 6.132 3.051 12.707 4.553 19.243 4.553 8.643 0 17.218-2.629 24.593-7.779l151.903-95.188 1.117-0.699 1.051-0.796c10.867-8.22 17.1-20.749 17.1-34.375s-6.233-26.154-17.1-34.373z m-161.811 99.474v-130.2l103.889 65.101-103.889 65.099z" p-id="1912"></path><path d="M892 773.208h-58.792V283.755c0-51.26-41.703-92.964-92.964-92.964H250.792V132c0-16.569-13.431-30-30-30s-30 13.431-30 30v58.792H132c-16.569 0-30 13.431-30 30s13.431 30 30 30h58.792v489.453c0 51.261 41.704 92.964 92.964 92.964h489.453V892c0 16.568 13.432 30 30 30s30-13.432 30-30v-58.792H892c16.568 0 30-13.432 30-30s-13.432-30-30-30z m-608.245 0c-18.176 0-32.964-14.787-32.964-32.964V250.792h489.453c18.177 0 32.964 14.788 32.964 32.964v489.453H283.755z" p-id="1913"></path></svg>